<svg width="30" height="25" viewBox="0 0 30 25" fill="none" xmlns="http://www.w3.org/2000/svg">
<path d="M0 1.74997C0 0.85934 0.716518 0.142822 1.60714 0.142822H28.3929C29.2835 0.142822 30 0.85934 30 1.74997C30 2.64059 29.2835 3.35711 28.3929 3.35711H1.60714C0.716518 3.35711 0 2.64059 0 1.74997ZM0 12.4643C0 11.5736 0.716518 10.8571 1.60714 10.8571H28.3929C29.2835 10.8571 30 11.5736 30 12.4643C30 13.3549 29.2835 14.0714 28.3929 14.0714H1.60714C0.716518 14.0714 0 13.3549 0 12.4643ZM30 23.1785C30 24.0692 29.2835 24.7857 28.3929 24.7857H1.60714C0.716518 24.7857 0 24.0692 0 23.1785C0 22.2879 0.716518 21.5714 1.60714 21.5714H28.3929C29.2835 21.5714 30 22.2879 30 23.1785Z" fill="black"/>
</svg>
